# xmcd CD database file
#
# Track frame offsets:
#	150
#	21830
#	42067
#	62767
#	85395
#	105320
#	130395
#	149070
#	170772
#	187142
#	210920
#	233075
#
# Disc length: 3354 seconds
#
# Revision: 3
# Processed by: cddbd v1.5.2PL0 Copyright (c) Steve Scherf et al.
# Submitted via: CDex 1.51
#
DISCID=a90d180c
DTITLE=Rory Gallagher - Defender
DYEAR=1987
DGENRE=Blues
TTITLE0=Kickback City
TTITLE1=Loanshark Blues
TTITLE2=Continental Op
TTITLE3=I Ain't No Saint
TTITLE4=Failsafe Day
TTITLE5=Road To Hell
TTITLE6=Doing Time
TTITLE7=Smear Campaign
TTITLE8=Don't Start Me Talkin'
TTITLE9=Seven Days
TTITLE10=Seems To Me
TTITLE11=No Peace For The Wicked
EXTD=YEAR: 1987
EXTT0=
EXTT1=
EXTT2=
EXTT3=
EXTT4=
EXTT5=
EXTT6=
EXTT7=
EXTT8=
EXTT9=
EXTT10=
EXTT11=
PLAYORDER=
